PathFileType	4	(X/Y/Z)	0_coords_data.trc
DataRate	CameraRate	NumFrames	NumMarkers	Units	OrigDataRate	OrigDataStartFrame	OrigNumFrames
30.0	30.0	6	21	m	30.0	10	78
Frame#	Time	THUMB_TIP	THUMB_IP	THUMB_MCP	THUMB_CMC	INDEX_TIP	INDEX_DIP	INDEX_PIP	INDEX_MCP	MIDDLE_TIP	MIDDLE_DIP	MIDDLE_PIP	MIDDLE_MCP	RING_TIP	RING_DIP	RING_PIP	RING_MCP	PINKY_TIP	PINKY_DIP	PINKY_PIP	PINKY_MCP	WRIST
X1	Y1	Z1	X2	Y2	Z2	X3	Y3	Z3	X4	Y4	Z4	X5	Y5	Z5	X6	Y6	Z6	X7	Y7	Z7	X8	Y8	Z8	X9	Y9	Z9	X10	Y10	Z10	X11	Y11	Z11	X12	Y12	Z12	X13	Y13	Z13	X14	Y14	Z14	X15	Y15	Z15	X16	Y16	Z16	X17	Y17	Z17	X18	Y18	Z18	X19	Y19	Z19	X20	Y20	Z20	X21	Y21	Z21
9	0.3	0.018174200057983397	-0.06918219757080078	0.939843017578125	0.005407670021057129	-0.06551450347900391	0.9667150268554687	-0.008379650115966798	-0.0701624984741211	0.9979030151367188	-0.019959299087524415	-0.04312220001220703	1.0203400268554688	0.006421669960021973	-0.048264198303222657	0.8932730102539063	-0.012714900016784669	-0.051420600891113284	0.90764501953125	-0.03133799934387207	-0.05442739868164063	0.9256849975585938	-0.051372001647949216	-0.05806100082397461	0.9639149780273437	0.01576949977874756	-0.023877500534057617	0.8874180297851563	-0.004060070037841797	-0.025395200729370116	0.9027589721679687	-0.028335399627685547	-0.027445899963378907	0.9231060180664062	-0.05408140182495117	-0.03158930015563965	0.9615040283203125	0.023632299423217772	-0.000976719975471496	0.9062429809570313	0.001586580038070678	0.001685700058937072	0.9134030151367187	-0.026018699645996093	0.0018652900457382202	0.92631298828125	-0.04648550033569336	-0.008631899833679199	0.9654450073242188	0.014850500106811524	0.013343500137329102	0.9310650024414062	-0.0025200700759887692	0.02055620002746582	0.9358109741210937	-0.02181909942626953	0.023990699768066406	0.9449949951171875	-0.03595800018310547	0.0128326997756958	0.9724849853515625	-0.04787110137939453	-0.021201400756835936	1.0490999755859376
10	0.3333333333333333	0.018074100494384765	-0.06912079620361328	0.9398060302734375	0.005344019889831543	-0.06548690032958984	0.9666110229492187	-0.00843577003479004	-0.07015149688720704	0.997947021484375	-0.01989780044555664	-0.043179401397705076	1.020280029296875	0.0065097899436950685	-0.04823089981079102	0.8934180297851563	-0.012633299827575684	-0.05141410064697265	0.90772900390625	-0.03141500091552735	-0.05445190048217773	0.925781982421875	-0.051517101287841795	-0.05814619827270508	0.9640469970703125	0.015695300102233887	-0.02390530014038086	0.8874929809570312	-0.004044469833374024	-0.025426000595092774	0.90297900390625	-0.02838629913330078	-0.02747599983215332	0.9232230224609375	-0.05428319931030273	-0.03164920043945312	0.9626320190429688	0.02349869918823242	-0.0011098400354385368	0.9063499755859376	0.001515470027923584	0.001625839948654174	0.9133920288085937	-0.026023399353027343	0.0018177700042724609	0.9262329711914062	-0.046532501220703126	-0.00868869972229004	0.965375	0.014594400405883789	0.013328499794006347	0.9310850219726563	-0.002712810039520263	0.02062430000305176	0.9358369750976563	-0.02201140022277832	0.023946399688720702	0.9451229858398438	-0.035934398651123044	0.012792699813842774	0.9723289794921876	-0.04809479904174805	-0.021087299346923827	1.049280029296875
11	0.36666666666666664	0.01797629928588867	-0.06909149932861328	0.939989990234375	0.005340529918670654	-0.06552339935302734	0.9667440185546875	-0.008601639747619629	-0.07005490112304688	0.998291015625	-0.020008499145507813	-0.04303710174560547	1.02025	0.006590740203857422	-0.048222301483154296	0.8935789794921875	-0.012551899909973144	-0.05142110061645508	0.907802978515625	-0.03146669960021973	-0.05445759963989258	0.9258660278320312	-0.05158689880371094	-0.058090099334716795	0.9640900268554687	0.01572920036315918	-0.02395739936828613	0.8875239868164062	-0.004056240081787109	-0.025429700851440428	0.9030689697265625	-0.02845490074157715	-0.02746150016784668	0.92327001953125	-0.054367599487304685	-0.031585599899291994	0.9618679809570313	0.02351259994506836	-0.001074790000915527	0.9064149780273437	0.0014655200242996212	0.001621269941329956	0.9133350219726563	-0.026106800079345703	0.001857669949531555	0.9262689819335937	-0.04624430084228515	-0.008584389686584473	0.9653699951171875	0.014687700271606445	0.01329769992828369	0.93118701171875	-0.0026907999515533437	0.02062350082397461	0.9358359985351562	-0.02195089912414551	0.023989200592041016	0.9450570068359375	-0.0360619010925293	0.012831500053405762	0.972552978515625	-0.04810269927978516	-0.021110700607299804	1.049300048828125
12	0.4	0.01799799919128418	-0.06917729949951172	0.9400369873046875	0.005309160232543945	-0.06554530334472657	0.9669229736328125	-0.00861411952972412	-0.07008989715576172	0.9983569946289063	-0.020002099990844728	-0.043106399536132815	1.020280029296875	0.006694839954376221	-0.04830110168457031	0.8938170166015625	-0.012451499938964843	-0.051470001220703124	0.9079730224609375	-0.03129310035705567	-0.05445740127563477	0.9258740234375	-0.051612098693847655	-0.05808229827880859	0.9641959838867188	0.01579290008544922	-0.02405500030517578	0.8877420043945312	-0.004044620037078858	-0.0255132999420166	0.9031489868164062	-0.028523000717163086	-0.027456899642944337	0.9232570190429688	-0.05428889846801758	-0.03154120063781738	0.9625570068359375	0.02358489990234375	-0.001238289952278137	0.9065910034179687	0.001592389941215515	0.001508990049362182	0.9134619750976563	-0.02614259910583496	0.0017918200492858883	0.9262650146484375	-0.04656119918823242	-0.008641420364379883	0.9655679931640625	0.014762900352478027	0.013183600425720214	0.931260009765625	-0.0025392200946807862	0.02052619934082031	0.935989013671875	-0.02190220069885254	0.023948699951171874	0.945302978515625	-0.03583629989624024	0.012838899612426758	0.9725029907226562	-0.04813700103759765	-0.021020299911499025	1.0496800537109374
13	0.43333333333333335	0.018097700119018553	-0.06911599731445313	0.9402230224609375	0.005439509868621826	-0.06547480010986328	0.9671519775390625	-0.008504850387573242	-0.07007969665527344	0.9984199829101562	-0.019981700897216795	-0.043109600067138674	1.0203699951171874	0.0069840002059936524	-0.04827669906616211	0.894073974609375	-0.0122947998046875	-0.05149300003051758	0.908260009765625	-0.031233699798583984	-0.05450070190429687	0.9260330200195312	-0.051464900970458985	-0.05803889846801758	0.964156982421875	0.015929800033569336	-0.024063199996948243	0.8879409790039062	-0.003944880008697509	-0.025536100387573243	0.9032830200195312	-0.028318700790405275	-0.02750429916381836	0.9234509887695312	-0.054147201538085936	-0.03153109931945801	0.9628189697265624	0.023738399505615234	-0.001271550059318542	0.9067760009765625	0.0016325299739837643	0.001496389985084533	0.9136190185546875	-0.026171100616455077	0.0017903000116348262	0.9263980102539062	-0.04626890182495117	-0.00856254005432129	0.9656090087890625	0.014751500129699707	0.013230500221252441	0.9314420166015625	-0.002628289937973022	0.02050469970703125	0.9360380249023438	-0.021885900497436522	0.02398150062561035	0.9453049926757813	-0.0357588005065918	0.012802700042724609	0.9727119750976563	-0.048055500030517576	-0.021149599075317382	1.049530029296875
14	0.4666666666666667	0.018241199493408203	-0.06904640197753906	0.9404000244140625	0.005477109909057617	-0.06544930267333984	0.9672479858398437	-0.008306389808654785	-0.07006050109863281	0.9984940185546874	-0.01985330009460449	-0.04306209945678711	1.0206599731445312	0.00717959976196289	-0.04818389892578125	0.8944349975585938	-0.012075400352478028	-0.051403900146484376	0.9085689697265625	-0.030981300354003906	-0.05443619918823242	0.9263380126953125	-0.05139889907836914	-0.05805400085449219	0.9643989868164062	0.016138599395751952	-0.02399530029296875	0.8881420288085937	-0.003784670114517212	-0.025472799301147462	0.9034329833984375	-0.02808650016784668	-0.027481800079345704	0.923635986328125	-0.053916900634765626	-0.031552600860595706	0.96306298828125	0.02382539939880371	-0.0012243900299072261	0.9069559936523437	0.0017290300130844113	0.001606050014495849	0.913676025390625	-0.025912599563598634	0.0018729900121688841	0.9266019897460938	-0.04644869995117187	-0.008582220077514649	0.9657589721679688	0.014779700279235839	0.013289799690246582	0.9315180053710937	-0.0024255800247192385	0.020538900375366213	0.9362750244140625	-0.021751100540161133	0.02404240036010742	0.9455599975585938	-0.03577790069580078	0.012848999977111817	0.9728590087890625	-0.04797959899902344	-0.021113000869750976	1.0497099609375
